<svg xmlns="http://www.w3.org/2000/svg" viewBox="0 0 76 76"><defs><style>.cls-1,.cls-2{fill:#f2f2f2;stroke:#f2f2f2;stroke-miterlimit:10;}.cls-1{stroke-width:2px;}</style></defs><title>bikewheel</title><g id="Layer_2" data-name="Layer 2"><g id="Layer_1-2" data-name="Layer 1"><rect class="cls-1" x="31.3" y="6.2" width="0.4" height="33.14" transform="translate(-6.4 14.1) rotate(-23)"/><polygon class="cls-1" points="37.9 38.2 8.4 23.1 8.6 22.8 38.1 37.8 37.9 38.2"/><rect class="cls-1" x="5.3" y="41.5" width="33.1" height="0.42" transform="translate(-8.8 6) rotate(-13)"/><polygon class="cls-1" points="18.2 64.6 17.9 64.3 37.8 37.9 38.2 38.1 18.2 64.6"/><rect class="cls-1" x="38.7" y="38" width="0.4" height="33.14" transform="translate(-2.8 2.1) rotate(-3)"/><rect class="cls-1" x="49.1" y="33.5" width="0.4" height="33.14" transform="translate(-20.9 47.1) rotate(-43)"/><polygon class="cls-1" points="70.9 42.2 38 38.2 38 37.8 70.9 41.8 70.9 42.2"/><polygon class="cls-1" points="38.1 38.2 37.9 37.8 65.7 19.8 65.9 20.1 38.1 38.2"/><rect class="cls-1" x="26.3" y="21.9" width="33.1" height="0.42" transform="translate(9.1 56.6) rotate(-73)"/><path class="cls-2" d="M38,6.5A31.5,31.5,0,1,1,6.5,38,31.5,31.5,0,0,1,38,6.5m0-3.9A35.4,35.4,0,1,0,73.4,38,35.4,35.4,0,0,0,38,2.6Z"/><path class="cls-2" d="M38,4.7A33.3,33.3,0,1,1,4.7,38,33.4,33.4,0,0,1,38,4.7M38,.5A37.5,37.5,0,1,0,75.5,38,37.5,37.5,0,0,0,38,.5Z"/></g></g></svg>